<?xml version="1.0" standalone="no"?><!DOCTYPE svg PUBLIC "-//W3C//DTD SVG 1.1//EN" "http://www.w3.org/Graphics/SVG/1.1/DTD/svg11.dtd"><svg t="1633174588748" class="icon" viewBox="0 0 1024 1024" version="1.1" xmlns="http://www.w3.org/2000/svg" p-id="2618" xmlns:xlink="http://www.w3.org/1999/xlink" width="200" height="200"><defs><style type="text/css"></style></defs><path d="M512 0c282.76736 0 512 229.23264 512 512s-229.23264 512-512 512S0 794.76736 0 512 229.23264 0 512 0z" fill="#3DB39E" p-id="2619"></path><path d="M737.28 645.12h61.44v-20.48h-61.44v20.48z m0-40.96h61.44v-20.48h-61.44v20.48z m0-40.96h61.44v-20.48h-61.44v20.48z m0-40.96h61.44v-20.48h-61.44v20.48z m0-40.96h61.44v-20.48h-61.44v20.48z m0-40.96h61.44v-20.48h-61.44v20.48z m0-40.96h61.44v-20.48h-61.44v20.48z m0-61.44v20.48h61.44v-20.48h-61.44zM225.28 645.12h61.44v-20.48h-61.44v20.48z m0-40.96h61.44v-20.48h-61.44v20.48z m0-40.96h61.44v-20.48h-61.44v20.48z m0-40.96h61.44v-20.48h-61.44v20.48z m0-40.96h61.44v-20.48h-61.44v20.48z m0-40.96h61.44v-20.48h-61.44v20.48z m0-40.96h61.44v-20.48h-61.44v20.48z m0-40.96h61.44v-20.48h-61.44v20.48z m440.32-71.68h20.48v-61.44h-20.48v61.44z m-40.96 0h20.48v-61.44h-20.48v61.44z m-40.96 0h20.48v-61.44h-20.48v61.44z m-40.96 0h20.48v-61.44h-20.48v61.44z m-40.96 0h20.48v-61.44h-20.48v61.44z m-40.96 0h20.48v-61.44h-20.48v61.44z m-40.96 0h20.48v-61.44h-20.48v61.44z m-40.96 0h20.48v-61.44h-20.48v61.44z m286.72 512h20.48v-61.44h-20.48v61.44z m-40.96 0h20.48v-61.44h-20.48v61.44z m-40.96 0h20.48v-61.44h-20.48v61.44z m-40.96 0h20.48v-61.44h-20.48v61.44z m-40.96 0h20.48v-61.44h-20.48v61.44z m-40.96 0h20.48v-61.44h-20.48v61.44z m-40.96 0h20.48v-61.44h-20.48v61.44z m-40.96 0h20.48v-61.44h-20.48v61.44z m-40.96-512h20.48v-61.44h-20.48v61.44zM225.28 686.08h61.44v-20.48h-61.44v20.48z m512 0h61.44v-20.48h-61.44v20.48zM337.92 798.72h20.48v-61.44h-20.48v61.44z m399.36-153.6h61.44v-20.48h-61.44v20.48z m0-40.96h61.44v-20.48h-61.44v20.48z m0-40.96h61.44v-20.48h-61.44v20.48z m0-40.96h61.44v-20.48h-61.44v20.48z m0-40.96h61.44v-20.48h-61.44v20.48z m0-40.96h61.44v-20.48h-61.44v20.48z m0-40.96h61.44v-20.48h-61.44v20.48z m0-61.44v20.48h61.44v-20.48h-61.44zM225.28 645.12h61.44v-20.48h-61.44v20.48z m0-40.96h61.44v-20.48h-61.44v20.48z m0-40.96h61.44v-20.48h-61.44v20.48z m0-40.96h61.44v-20.48h-61.44v20.48z m0-40.96h61.44v-20.48h-61.44v20.48z m0-40.96h61.44v-20.48h-61.44v20.48z m0-40.96h61.44v-20.48h-61.44v20.48z m0-40.96h61.44v-20.48h-61.44v20.48z m440.32-71.68h20.48v-61.44h-20.48v61.44z m-40.96 0h20.48v-61.44h-20.48v61.44z m-40.96 0h20.48v-61.44h-20.48v61.44z m-40.96 0h20.48v-61.44h-20.48v61.44z m-40.96 0h20.48v-61.44h-20.48v61.44z m-40.96 0h20.48v-61.44h-20.48v61.44z m-40.96 0h20.48v-61.44h-20.48v61.44z m-40.96 0h20.48v-61.44h-20.48v61.44z m286.72 512h20.48v-61.44h-20.48v61.44z m-40.96 0h20.48v-61.44h-20.48v61.44z m-40.96 0h20.48v-61.44h-20.48v61.44z m-40.96 0h20.48v-61.44h-20.48v61.44z m-40.96 0h20.48v-61.44h-20.48v61.44z m-40.96 0h20.48v-61.44h-20.48v61.44z m-40.96 0h20.48v-61.44h-20.48v61.44z m-40.96 0h20.48v-61.44h-20.48v61.44z m-40.96-512h20.48v-61.44h-20.48v61.44zM225.28 686.08h61.44v-20.48h-61.44v20.48z m512 0h61.44v-20.48h-61.44v20.48zM337.92 798.72h20.48v-61.44h-20.48v61.44z" fill="#F2F1EF" p-id="2620"></path><path d="M245.76 419.84h40.96v20.48h-40.96z m0-81.92h40.96v20.48h-40.96z m0 40.96h40.96v20.48h-40.96z m0 286.72h40.96v20.48h-40.96z m0-40.96h40.96v20.48h-40.96z m0-122.88h40.96v20.48h-40.96z m0 81.92h40.96v20.48h-40.96z m92.16-337.92h20.48v40.96h-20.48z m-92.16 296.96h40.96v20.48h-40.96z m0-81.92h40.96v20.48h-40.96z m337.92-215.04h20.48v40.96h-20.48z m-204.8 0h20.48v40.96h-20.48z m286.72 0h20.48v40.96h-20.48z m-122.88 0h20.48v40.96h-20.48z m81.92 0h20.48v40.96h-20.48z m-122.88 0h20.48v40.96h-20.48z m-81.92 0h20.48v40.96h-20.48z m40.96 0h20.48v40.96h-20.48z m276.48 133.12h40.96v20.48h-40.96z m0 122.88h40.96v20.48h-40.96zM337.92 737.28h20.48v40.96h-20.48z m399.36-194.56h40.96v20.48h-40.96z m0 81.92h40.96v20.48h-40.96z m0-286.72h40.96v20.48h-40.96z m0 122.88h40.96v20.48h-40.96z m0 204.8h40.96v20.48h-40.96z m0-245.76h40.96v20.48h-40.96z m0 163.84h40.96v20.48h-40.96zM460.8 737.28h20.48v40.96h-20.48z m40.96 0h20.48v40.96h-20.48z m163.84 0h20.48v40.96h-20.48z m-286.72 0h20.48v40.96h-20.48z m40.96 0h20.48v40.96h-20.48z m204.8 0h20.48v40.96h-20.48z m-40.96 0h20.48v40.96h-20.48z m-40.96 0h20.48v40.96h-20.48z" fill="#CECDCB" p-id="2621"></path><path d="M307.2 266.24h409.6a40.96 40.96 0 0 1 40.96 40.96v409.6a40.96 40.96 0 0 1-40.96 40.96H307.2a40.96 40.96 0 0 1-40.96-40.96V307.2a40.96 40.96 0 0 1 40.96-40.96z" fill="#324D5B" p-id="2622"></path><path d="M327.68 307.2h368.64a20.48 20.48 0 0 1 20.48 20.48v358.4a20.48 20.48 0 0 1-20.48 20.48H327.68a20.48 20.48 0 0 1-20.48-20.48V327.68a20.48 20.48 0 0 1 20.48-20.48z" fill="#DADFE1" p-id="2623"></path><path d="M363.52 348.16a15.36 15.36 0 1 0 0.01024 30.73024A15.36 15.36 0 0 0 363.52 348.16z m0 266.24a15.36 15.36 0 1 0 0.01024 30.73024A15.36 15.36 0 0 0 363.52 614.4z m296.96 0a15.36 15.36 0 1 0 0.01024 30.73024A15.36 15.36 0 0 0 660.48 614.4z m0-235.52a15.36 15.36 0 1 0-0.01024-30.73024A15.36 15.36 0 0 0 660.48 378.88z m-296.96-30.72a15.36 15.36 0 1 0 0.01024 30.73024A15.36 15.36 0 0 0 363.52 348.16z m0 266.24a15.36 15.36 0 1 0 0.01024 30.73024A15.36 15.36 0 0 0 363.52 614.4z m296.96 0a15.36 15.36 0 1 0 0.01024 30.73024A15.36 15.36 0 0 0 660.48 614.4z m0-235.52a15.36 15.36 0 1 0-0.01024-30.73024A15.36 15.36 0 0 0 660.48 378.88z" fill="#97A5AB" p-id="2624"></path><path d="M524.3904 507.00288c44.6976-11.96032 75.38688-42.35264 68.54656-67.87072-6.85056-25.50784-48.62976-36.49536-93.32736-24.53504-44.6976 11.97056-75.38688 42.35264-68.54656 67.87072 6.85056 25.50784 48.62976 36.49536 93.32736 24.53504zM568.32 542.72h-112.64a15.36 15.36 0 0 0 0 30.72h112.64a15.36 15.36 0 0 0 0-30.72z m-43.9296-35.71712c44.6976-11.96032 75.38688-42.35264 68.54656-67.87072-6.85056-25.50784-48.62976-36.49536-93.32736-24.53504-44.6976 11.97056-75.38688 42.35264-68.54656 67.87072 6.85056 25.50784 48.62976 36.49536 93.32736 24.53504zM568.32 542.72h-112.64a15.36 15.36 0 0 0 0 30.72h112.64a15.36 15.36 0 0 0 0-30.72z" fill="#C9CECF" p-id="2625"></path><path d="M696.32 686.08H327.68a20.48 20.48 0 0 1-20.48-20.48v20.48a20.48 20.48 0 0 0 20.48 20.48h368.64a20.48 20.48 0 0 0 20.48-20.48v-20.48a20.48 20.48 0 0 1-20.48 20.48z" fill="#AEB2B4" p-id="2626"></path><path d="M716.8 737.28H307.2a40.96 40.96 0 0 1-40.96-40.96v20.48a40.96 40.96 0 0 0 40.96 40.96h409.6a40.96 40.96 0 0 0 40.96-40.96v-20.48a40.96 40.96 0 0 1-40.96 40.96z" fill="#233640" p-id="2627"></path><path d="M378.88 92.04736V225.28h20.48V92.43648l-33.80224-71.0656c-5.9392 1.77152-11.80672 3.67616-17.664 5.65248L378.88 92.04736zM604.16 8.43776a517.0688 517.0688 0 0 0-20.48-3.33824V225.28h20.48V8.43776zM542.72 798.72h20.48v20.48h-20.48z m0-573.44h20.48V2.56a517.632 517.632 0 0 0-20.48-1.55648V225.28z m-122.88 0h20.48V5.09952c-6.88128 0.96256-13.70112 2.0992-20.48 3.33824V225.28z m0 573.44l20.48 92.16h20.48l-20.48-92.16zM481.28 1.00352c-6.8608 0.4096-13.70112 0.88064-20.48 1.55648V225.28h20.48V1.00352z m40.96-0.74752L512 0l-10.24 0.256V225.28h20.48V0.256zM604.16 798.72h-20.48l-20.48 92.16h20.48z m194.56-235.52h222.72c0.67584-6.77888 1.15712-13.6192 1.55648-20.48H798.72v20.48zM665.6 153.6v71.68h20.48v-51.2l176.2816-35.25632a510.1568 510.1568 0 0 0-22.54848-20.06016L665.6 153.6z m133.12 450.56h216.85248c1.2288-6.78912 2.36544-13.59872 3.328-20.48H798.72v20.48z m0-266.24v20.48h50.92352l106.3936-101.19168c-2.5088-4.36224-4.99712-8.73472-7.63904-13.01504L850.04288 337.92H798.72zM645.12 17.58208a519.17824 519.17824 0 0 0-20.48-4.99712V225.28h20.48V17.58208zM665.6 798.72v20.20352L706.56 890.88h20.48l-40.96-71.55712V798.72z m133.12-296.96h51.2v20.48h-51.2z m0-40.96h61.44v20.48h-61.44zM173.95712 686.08H225.28v-20.48h-71.40352L100.7104 816.91648a511.09888 511.09888 0 0 0 19.10784 24.10496L173.95712 686.08z m723.8656 162.304L870.4 665.6h-71.68v20.48h51.2l27.63776 184.2688a527.104 527.104 0 0 0 20.26496-21.9648zM655.36 891.00288L645.12 798.72h-20.48l10.24 91.88352 38.57408 107.27424a491.80672 491.80672 0 0 0 18.1248-6.32832L655.36 891.00288zM522.24 1023.744V798.72h-20.48v225.024l10.24 0.256 10.24-0.256zM225.28 604.16v-20.48H5.09952c0.96256 6.88128 2.0992 13.69088 3.33824 20.48H225.28zM92.03712 645.12H225.28v-20.48H92.43648l-71.0656 33.80224c1.77152 5.9392 3.67616 11.80672 5.65248 17.664L92.03712 645.12z m839.92576-266.24H798.72v20.48h132.84352l71.0656-33.80224a499.18976 499.18976 0 0 0-5.66272-17.664L931.96288 378.88zM798.72 419.84v20.48h220.18048a513.9968 513.9968 0 0 0-3.328-20.48H798.72z m0 204.8v20.48h207.68768c1.82272-6.76864 3.46112-13.59872 5.00736-20.48H798.72zM337.92 839.68l-40.96 51.2h20.48l40.96-51.2v-40.96h-20.48zM225.28 399.36v-20.48H17.58208a519.17824 519.17824 0 0 0-4.99712 20.48H225.28z m143.36 491.52h20.48l10.24-92.16h-20.48zM153.6 358.4h71.68v-20.48h-71.68l-93.45024-66.75456c-2.65216 4.94592-5.20192 9.95328-7.68 14.99136L153.6 358.4z m184.32-184.43264V225.28h20.48v-50.92352l-101.19168-106.3936c-4.37248 2.5088-8.73472 5.00736-13.01504 7.63904L337.92 173.96736zM163.84 542.72h61.44v20.48h-61.44z m51.2-81.92h10.24v20.48h-10.24z m10.24-40.96H8.43776a496.0768 496.0768 0 0 0-3.33824 20.48H225.28v-20.48z m-51.2 81.92h51.2v20.48h-51.2z" fill="#60BB9E" p-id="2628"></path><path d="M573.44 890.88a20.48 20.48 0 0 0-20.48 20.48v110.85824a512.23552 512.23552 0 0 0 40.96-4.82304V911.36a20.48 20.48 0 0 0-20.48-20.48z m71.68 0a20.48 20.48 0 0 0-20.48 20.48v100.05504a514.2528 514.2528 0 0 0 40.96-10.88512V911.36a20.48 20.48 0 0 0-20.48-20.48z m71.68 0a20.48 20.48 0 0 0-20.48 20.48v78.30528a509.67552 509.67552 0 0 0 40.96-17.84832V911.36a20.48 20.48 0 0 0-20.48-20.48z m-266.24 0a20.48 20.48 0 0 0-20.48 20.48v106.0352c13.47584 2.16064 27.14624 3.72736 40.96 4.82304V911.36a20.48 20.48 0 0 0-20.48-20.48z m-71.68 0a20.48 20.48 0 0 0-20.48 20.48v89.16992c13.4144 4.20864 27.09504 7.77216 40.96 10.88512V911.36a20.48 20.48 0 0 0-20.48-20.48z m-71.68 0a20.48 20.48 0 0 0-20.48 20.48v60.45696a509.67552 509.67552 0 0 0 40.96 17.84832V911.36a20.48 20.48 0 0 0-20.48-20.48z" fill="#EEDC9D" p-id="2629"></path><path d="M911.36 471.04a40.96 40.96 0 1 0 0 81.92 40.96 40.96 0 0 0 0-81.92z m-798.72 0a40.96 40.96 0 1 0 0 81.92 40.96 40.96 0 0 0 0-81.92z m798.72 0a40.96 40.96 0 1 0 0 81.92 40.96 40.96 0 0 0 0-81.92z m-798.72 0a40.96 40.96 0 1 0 0 81.92 40.96 40.96 0 0 0 0-81.92z" fill="#278272" p-id="2630"></path><path d="M911.36 486.4c14.12096 0 25.6 11.47904 25.6 25.6s-11.47904 25.6-25.6 25.6-25.6-11.47904-25.6-25.6 11.47904-25.6 25.6-25.6m-798.72 0c14.12096 0 25.6 11.47904 25.6 25.6s-11.47904 25.6-25.6 25.6-25.6-11.47904-25.6-25.6 11.47904-25.6 25.6-25.6M911.36 471.04a40.96 40.96 0 1 0 0 81.92 40.96 40.96 0 0 0 0-81.92z m-798.72 0a40.96 40.96 0 1 0 0 81.92 40.96 40.96 0 0 0 0-81.92z m798.72 15.36c14.12096 0 25.6 11.47904 25.6 25.6s-11.47904 25.6-25.6 25.6-25.6-11.47904-25.6-25.6 11.47904-25.6 25.6-25.6m-798.72 0c14.12096 0 25.6 11.47904 25.6 25.6s-11.47904 25.6-25.6 25.6-25.6-11.47904-25.6-25.6 11.47904-25.6 25.6-25.6M911.36 471.04a40.96 40.96 0 1 0 0 81.92 40.96 40.96 0 0 0 0-81.92z m-798.72 0a40.96 40.96 0 1 0 0 81.92 40.96 40.96 0 0 0 0-81.92z" fill="#F7DE9D" p-id="2631"></path></svg>